<svg id="Layer_1" enable-background="new 0 0 512 512" height="512" viewBox="0 0 512 512" width="512" xmlns="http://www.w3.org/2000/svg"><g><g><g><path d="m512 256c0 56.5-18.31 108.72-49.31 151.06-46.57 63.62-121.81 39.523-206.69 39.523s-160.12 24.097-206.69-39.523c-31-42.34-49.31-94.56-49.31-151.06 0-141.38 114.62-256 256-256s256 114.62 256 256z" fill="#4cd3aa"/></g></g><path d="m256 446.583c84.88 0 160.12 24.097 206.69-39.523 31-42.34 49.31-94.56 49.31-151.06 0-21.34-2.628-42.064-7.549-61.882l-154.784-154.785-193.07 180.489 41.478 41.936c5.297 9.488 15.758 22.66 21.592 28.742l-9 41.79-161.357 74.77c46.57 63.62 121.81 39.523 206.69 39.523z" fill="#26b290"/><g><path d="m199.97 260.488h112.06v118.84h-112.06z" fill="#f7a969"/><path d="m256 260.491h56.03v118.84h-56.03z" fill="#ea8d4e"/><path d="m385.54 332.29h-73.51v.002l-56.03 28.041-56.03-28.041v-.002h-73.5c-41.82 0-75.88 33.26-77.16 74.77 46.57 63.62 121.81 104.94 206.69 104.94s160.12-41.32 206.69-104.94c-1.27-41.52-35.32-74.77-77.15-74.77z" fill="#efebdc"/><path d="m462.69 407.06c-46.57 63.62-121.81 104.94-206.69 104.94v-151.667l56.03-28.043h73.51c41.83 0 75.88 33.25 77.15 74.77z" fill="#d6cfbd"/><path d="m312.03 311.667 29.22 20.623-26.25 73.377-59-45.334z" fill="#bab3a2"/><path d="m349.62 151.149c-3.955-60.043-52.523-82.233-93.62-82.233s-89.665 22.19-93.62 82.233c-10.628 2.055-18.177 15.995-16.988 27.265l1.822 25.648c1.247 11.835 11.65 20.476 23.115 19.19l1.977-.214c23.485 63.063 60.316 69.638 83.694 73.33 23.378-3.692 60.209-10.267 83.694-73.33l1.977.214c11.465 1.286 21.868-7.354 23.115-19.19l1.822-25.648c1.189-11.27-6.36-25.21-16.988-27.265z" fill="#ffbf85"/><path d="m366.609 178.414-1.822 25.648c-1.247 11.835-11.65 20.476-23.115 19.19l-1.977-.214c-8.027 21.528-17.602 36.48-27.664 46.971-19.404 20.242-40.629 23.924-56.03 26.359v-227.452c41.097 0 89.665 22.19 93.62 82.233 10.627 2.055 18.176 15.995 16.988 27.265z" fill="#f7a969"/><path d="m275.826 204.523c-11.431-9.719-28.221-9.719-39.652 0-12.748 10.838-28.758 17.094-45.477 17.771l-18.392.744 1.233 7.414c6.705 40.322 41.586 69.882 82.461 69.882 41.791-2.318 76.381-33.318 83.247-74.606l.447-2.69-18.392-.744c-16.717-.677-32.727-6.933-45.475-17.771z" fill="#efebdc"/><path d="m339.69 223.04-.44 2.69c-3.43 20.65-12.49 39.84-27.22 53.04s-35.13 20.41-56.03 21.56v-103.1c7.06 0 14.12 2.43 19.83 7.29 12.74 10.84 28.75 17.1 45.47 17.77z" fill="#d6cfbd"/><path d="m199.97 311.667-29.22 20.623 26.25 73.377 59-45.334z" fill="#d6cfbd"/><path d="m170.75 332.29v165.16c-14.08-4.96-27.59-11.13-40.42-18.38v-146.78z" fill="#584b66"/><path d="m381.67 332.29v146.78c-12.83 7.25-26.34 13.42-40.42 18.38v-165.16z" fill="#3d3449"/><path d="m359.333 72.333-32.333-5.333c19.333-5.333 22.667-27.667 22.667-27.667-39.667 15.667-80.334-23.666-149.697 12.334-52.986 27.5-41.409 107.734-41.409 107.734l.105 3.266 22.667 31 12.667-67.834c40.807 9.324 83.192 9.324 124 0l12.667 67.833 22.667-31c5.269-45.986-9.08-66.673-17.576-74.676 14.599-6.458 23.575-15.657 23.575-15.657z" fill="#d36c18"/><path d="m335.76 87.99c8.49 8 22.84 28.69 17.57 74.68l-22.66 31-12.67-67.84c-20.4 4.67-41.2 7-62 7v-96.76c37.94-1.58 66.05 14.17 93.67 3.26 0 0-3.34 22.34-22.67 27.67l32.33 5.33s-8.97 9.2-23.57 15.66z" fill="#af4b00"/></g></g></svg>