<svg id="Layer_1" enable-background="new 0 0 512 512" height="512" viewBox="0 0 512 512" width="512" xmlns="http://www.w3.org/2000/svg"><g><g><g><path d="m512 256c0 56.5-18.31 108.72-49.31 151.06-46.57 63.62-121.81 39.523-206.69 39.523s-160.12 24.097-206.69-39.523c-31-42.34-49.31-94.56-49.31-151.06 0-141.38 114.62-256 256-256s256 114.62 256 256z" fill="#a23ace"/></g></g><path d="m256 446.583c84.88 0 160.12 24.097 206.69-39.523 31-42.34 49.31-94.56 49.31-151.06 0-26.373-3.993-51.813-11.399-75.753l-133.471-133.471-213.536 195.918 110.649 109.824s-123.111 103.732-207.132 64.088c46.932 51.526 118.594 29.977 198.889 29.977z" fill="#7728a0"/><g><path d="m199.97 285.821h112.06v118.84h-112.06z" fill="#f7a969"/><path d="m256 285.825h56.03v118.84h-56.03z" fill="#ea8d4e"/><path d="m182.125 350.25h147.75v37.5h-147.75z" fill="#ff4571"/><path d="m256 350.25h73.88v37.5h-73.88z" fill="#e52541"/><path d="m455.15 416.87c-46.93 58.02-118.71 95.13-199.15 95.13-80.72 0-152.71-37.36-199.63-95.73 6.86-17.98 19.95-29.52 44.59-29.52h308.08c24.92 0 38.74 11.8 46.11 30.12z" fill="#efebdc"/><path d="m455.15 416.87c-7.37-18.32-21.19-30.12-46.11-30.12h-226.915v114.413c23.392 7.04 48.189 10.837 73.875 10.837 80.44 0 152.22-37.11 199.15-95.13z" fill="#e5dfd1"/><path d="m455.15 416.87c-46.93 58.02-118.71 95.13-199.15 95.13v-125.25h153.04c24.92 0 38.74 11.8 46.11 30.12z" fill="#d6cfbd"/><path d="m349.62 176.482c-3.955-60.043-52.523-82.233-93.62-82.233s-89.665 22.19-93.62 82.233c-10.628 2.055-18.177 15.995-16.988 27.265l1.822 25.648c1.247 11.835 11.65 20.475 23.115 19.19l1.977-.214c23.485 63.063 60.316 69.638 83.694 73.33 23.378-3.692 60.209-10.267 83.694-73.33l1.977.214c11.465 1.286 21.868-7.354 23.115-19.19l1.822-25.648c1.189-11.27-6.36-25.209-16.988-27.265z" fill="#ffbf85"/><path d="m366.609 203.747-1.822 25.648c-1.247 11.835-11.65 20.475-23.115 19.19l-1.977-.214c-8.027 21.528-17.602 36.48-27.664 46.971-19.404 20.242-40.629 23.924-56.03 26.359v-227.452c41.097 0 89.665 22.19 93.62 82.233 10.627 2.056 18.176 15.995 16.988 27.265z" fill="#f7a969"/><path d="m354.5 168-9.07 47-29.94-55.685h-121.08l-27.84 55.685-9.07-47 98.5-48.869z" fill="#584b66"/><path d="m354.5 168-9.07 47-29.94-55.68h-59.49v-40.19z" fill="#333"/><path d="m377.782 74.284c-1.271-24.314-21.049-44.013-45.367-45.2-12.865-.628-24.672 3.843-33.607 11.551-9.39-13.571-25.056-22.468-42.808-22.468s-33.418 8.897-42.807 22.468c-8.934-7.708-20.74-12.178-33.605-11.551-24.318 1.186-44.097 20.884-45.37 45.198-.699 13.353 4.085 25.584 12.298 34.652 5.605 6.188 9.515 13.718 10.962 21.94l.022.126v11.833h98.5 98.5v-11.833l.022-.126c1.447-8.223 5.357-15.752 10.962-21.941 8.213-9.067 12.996-21.297 12.298-34.649z" fill="#efebdc"/><path d="m365.48 108.93c-5.6 6.19-9.51 13.72-10.96 21.94l-.02.13v11.83h-98.5v-124.66c17.75 0 33.42 8.89 42.81 22.47 8.93-7.71 20.74-12.18 33.6-11.56 24.32 1.19 44.1 20.89 45.37 45.2.7 13.36-4.08 25.59-12.3 34.65z" fill="#d6cfbd"/><path d="m275.826 229.856c-11.431-9.718-28.221-9.718-39.652 0-12.748 10.838-28.758 17.094-45.477 17.77l-18.392.744 1.233 7.414c6.705 40.322 41.586 69.882 82.461 69.882 41.791-2.318 76.381-33.318 83.247-74.606l.447-2.69-18.392-.744c-16.717-.675-32.727-6.932-45.475-17.77z" fill="#efebdc"/><path d="m339.69 248.373-.44 2.69c-3.43 20.65-12.49 39.84-27.22 53.04s-35.13 20.41-56.03 21.56v-103.1c7.06 0 14.12 2.43 19.83 7.29 12.74 10.84 28.75 17.1 45.47 17.77z" fill="#d6cfbd"/><path d="m157.5 131h197v37h-197z" fill="#ff4571"/><path d="m256 131h98.5v37h-98.5z" fill="#e52541"/><circle cx="311.13" cy="449.375" fill="#333" r="18.75"/></g></g></svg>