<svg id="Layer_1" enable-background="new 0 0 512 512" height="512" viewBox="0 0 512 512" width="512" xmlns="http://www.w3.org/2000/svg"><g><g><g><path d="m512 256c0 54.816-17.235 105.604-46.572 147.248-.901 1.279-124.548 43.335-209.428 43.335s-208.955-42.654-210.062-44.239c-28.951-41.475-45.938-91.924-45.938-146.344 0-141.38 114.62-256 256-256s256 114.62 256 256z" fill="#ef9b14"/></g></g><path d="m465.428 403.248c29.337-41.644 46.572-92.432 46.572-147.248 0-7.017-.294-13.964-.848-20.838l-168.996-168.996-230.49 209.5 99.748 99.419-165.471 27.263c1.24 1.629 125.223 44.235 210.057 44.235 84.88 0 208.526-42.055 209.428-43.335z" fill="#db8200"/><g><path d="m199.97 260.488h112.06v118.84h-112.06z" fill="#ffbb7d"/><path d="m256 260.491h56.03v118.84h-56.03z" fill="#efa36a"/><path d="m385.54 332.29h-73.51v.002h-112.06v-.002h-73.5c-41.82 0-75.88 33.26-77.16 74.77 46.57 63.62 121.81 104.94 206.69 104.94s160.12-41.32 206.69-104.94c-1.27-41.52-35.32-74.77-77.15-74.77z" fill="#ffd4a6"/><path d="m462.69 407.06c-46.57 63.62-121.81 104.94-206.69 104.94v-179.71h129.54c41.83 0 75.88 33.25 77.15 74.77z" fill="#ffbb7d"/><path d="m349.62 151.149c-3.955-60.043-52.523-82.233-93.62-82.233s-89.666 22.19-93.62 82.233c-10.627 2.056-18.177 15.995-16.988 27.265l1.822 25.648c1.247 11.835 11.65 20.476 23.115 19.19l1.977-.214c23.485 63.063 60.316 69.638 83.694 73.33 23.378-3.692 60.209-10.267 83.694-73.33l1.977.214c11.465 1.286 21.868-7.354 23.115-19.19l1.822-25.648c1.189-11.27-6.36-25.209-16.988-27.265z" fill="#ffd4a6"/><path d="m366.609 178.414-1.822 25.648c-1.247 11.835-11.65 20.476-23.115 19.19l-1.977-.214c-8.026 21.528-17.602 36.48-27.664 46.971-19.404 20.242-40.63 23.924-56.03 26.359v-227.452c41.097 0 89.665 22.19 93.62 82.233 10.627 2.056 18.176 15.995 16.988 27.265z" fill="#ffbb7d"/><path d="m275.826 204.523c-11.431-9.718-28.221-9.718-39.652 0-12.748 10.838-28.758 17.094-45.477 17.771l-18.392.744 1.233 7.414c6.705 40.322 41.586 69.882 82.461 69.882 41.791-2.318 76.381-33.318 83.247-74.606l.447-2.69-18.392-.744c-16.717-.677-32.727-6.933-45.475-17.771z" fill="#efebdc"/><path d="m339.69 223.04-.44 2.69c-3.43 20.65-12.49 39.84-27.22 53.04s-35.13 20.41-56.03 21.56v-103.1c7.06 0 14.12 2.43 19.83 7.29 12.74 10.84 28.75 17.1 45.47 17.77z" fill="#d6cfbd"/><path d="m256 29.667c-155 0-144.333 246-144.333 246l95.521 29.391c-26-60.333-23.432-155.821-7.217-179.821 19.907-29.464 56.03-13.57 56.03-13.57s36.123-15.895 56.03 13.57c16.215 24 18.783 119.488-7.217 179.821l95.521-29.391c-.002 0 10.665-246-144.335-246z" fill="#584b66"/><path d="m400.33 275.67-95.52 29.39c26-60.34 23.43-155.82 7.22-179.82-19.91-29.47-56.03-13.57-56.03-13.57v-82c155 0 144.33 246 144.33 246z" fill="#3d3449"/><path d="m465.43 403.25c-46.33 65.78-122.86 108.75-209.43 108.75-86.96 0-163.8-43.37-210.07-109.65 6.56-45.49 48.11-78 94.26-72.87l25.31 2.81s19.93 53.51 90.12 62.16c70.18-8.65 90.11-62.16 90.11-62.16l25.31-2.81c46.45-5.16 88.25 27.81 94.39 73.77z" fill="#a23ace"/><path d="m465.43 403.25c-46.33 65.78-122.86 108.75-209.43 108.75v-117.6c69.87-8.8 89.73-62.11 89.73-62.11l25.31-2.81c46.45-5.16 88.25 27.81 94.39 73.77z" fill="#7728a0"/></g></g></svg>