<svg id="Layer_1" enable-background="new 0 0 512 512" height="512" viewBox="0 0 512 512" width="512" xmlns="http://www.w3.org/2000/svg"><g><g><g><path d="m54.47 413.88c-34.121-43.494-54.47-98.314-54.47-157.88 0-141.38 114.62-256 256-256s256 114.62 256 256c0 58.694-19.758 112.774-52.982 155.958z" fill="#4cd3aa"/></g></g><path d="m512 256c0-26.883-4.154-52.794-11.838-77.137l-124.411-124.411-232.593 69.49 20.22 20.555-6.067 75.786 58.194 58.879 24.829 92.505-185.863 42.213 404.547-1.921c33.224-43.185 52.982-97.265 52.982-155.959z" fill="#26b290"/><g><g><ellipse cx="174.436" cy="85.744" fill="#3d3449" rx="49.373" ry="49.373" transform="matrix(.053 -.999 .999 .053 79.618 255.419)"/><circle cx="337.564" cy="85.744" fill="#292a2b" r="49.373"/></g><path d="m199.97 260.488h112.06v118.84h-112.06z" fill="#ffbb7d"/><path d="m256 260.491h56.03v118.84h-56.03z" fill="#efa36a"/><path d="m256 362.691h-75.333v-41.983h52.367c12.684 0 22.967 10.283 22.967 22.967v19.016z" fill="#ffea92"/><path d="m256 362.691h75.333v-41.983h-52.367c-12.684 0-22.967 10.283-22.967 22.967v19.016z" fill="#f7d854"/><path d="m459.02 411.96c-46.6 60.57-119.69 99.7-201.94 100.03-.36.01-.72.01-1.08.01-81.81 0-154.66-38.38-201.53-98.12 10.36-30.4 39.17-52.27 73.08-52.27h73.5v.01h112.06v-.01h73.51c33.2 0 61.5 20.95 72.4 50.35z" fill="#ffd4a6"/><path d="m459.02 411.96c-46.6 60.57-119.69 99.7-201.94 100.03v-150.38h129.54c33.2 0 61.5 20.95 72.4 50.35z" fill="#ffbb7d"/><path d="m375.24 361.61v120.98c-35.61 18.78-76.18 29.41-119.24 29.41-42.46 0-82.5-10.34-117.75-28.64v-121.75z" fill="#ff4571"/><path d="m375.24 361.61v120.98c-35.61 18.78-76.18 29.41-119.24 29.41v-150.39z" fill="#e52541"/><path d="m349.62 151.149c-3.955-60.043-52.523-82.233-93.62-82.233s-89.666 22.19-93.62 82.233c-10.628 2.056-18.177 15.995-16.988 27.265l1.822 25.648c1.247 11.835 11.65 20.476 23.115 19.19l1.977-.214c23.485 63.063 60.316 69.638 83.694 73.33 23.378-3.692 60.209-10.267 83.694-73.33l1.977.214c11.465 1.286 21.868-7.354 23.115-19.19l1.822-25.648c1.189-11.27-6.36-25.209-16.988-27.265z" fill="#ffd4a6"/><path d="m366.609 178.414-1.822 25.648c-1.247 11.835-11.65 20.476-23.115 19.19l-1.977-.214c-8.027 21.528-17.602 36.48-27.664 46.971-19.404 20.242-40.63 23.924-56.03 26.359v-227.452c41.097 0 89.665 22.19 93.62 82.233 10.627 2.056 18.176 15.995 16.988 27.265z" fill="#ffbb7d"/><path d="m275.826 204.523c-11.431-9.718-28.221-9.718-39.652 0-12.748 10.838-28.758 17.094-45.477 17.771l-18.392.744 1.233 7.414c6.705 40.322 41.586 69.882 82.461 69.882 41.791-2.318 76.381-33.318 83.247-74.606l.447-2.69-18.392-.744c-16.717-.677-32.727-6.933-45.475-17.771z" fill="#efebdc"/><path d="m339.69 223.04-.44 2.69c-3.43 20.65-12.49 39.84-27.22 53.04s-35.13 20.41-56.03 21.56v-103.1c7.06 0 14.12 2.43 19.83 7.29 12.74 10.84 28.75 17.1 45.47 17.77z" fill="#d6cfbd"/><path d="m205.796 56.667c-32.736 18.219-53.032 43.124-53.032 80.587v9.797l18.25 43.449 21.691-40.402 22.001-26.063 21.663 26.063 19.631-27.417 19.632 27.417 21.663-26.063 22.001 26.063 21.691 40.402 18.25-43.449v-9.797c0-37.464-20.296-62.368-53.031-80.587-31.217-17.373-69.195-17.373-100.41 0z" fill="#584b66"/><g><path d="m142.41 362.43v123.03c-1.4-.68-2.78-1.38-4.16-2.1-11.36-5.89-22.22-12.61-32.51-20.08v-100.85c0-4.1 3.33-7.43 7.44-7.43h21.8c4.1 0 7.43 3.33 7.43 7.43z" fill="#ffea92"/><path d="m407.74 362.43v99.77c-10.27 7.57-21.13 14.39-32.5 20.39-1.38.73-2.77 1.44-4.16 2.15v-122.31c0-4.1 3.33-7.43 7.43-7.43h21.8c4.11 0 7.43 3.33 7.43 7.43z" fill="#f7d854"/></g><path d="m359.24 137.25v9.8l-18.25 43.45-21.69-40.4-22.01-26.07-21.66 26.07-19.63-27.42v-79.04c17.3 0 34.6 4.34 50.2 13.03 32.74 18.22 53.04 43.12 53.04 80.58z" fill="#3d3449"/></g></g></svg>