<svg id="Layer_1" enable-background="new 0 0 512 512" height="512" viewBox="0 0 512 512" width="512" xmlns="http://www.w3.org/2000/svg"><g><g><g><path d="m512 256c0 56.5-18.31 108.72-49.31 151.06-46.57 63.62-121.81 39.523-206.69 39.523s-160.12 24.097-206.69-39.523c-31-42.34-49.31-94.56-49.31-151.06 0-141.38 114.62-256 256-256s256 114.62 256 256z" fill="#ffea92"/></g></g><path d="m256 446.583c84.88 0 160.12 24.097 206.69-39.523 31-42.34 49.31-94.56 49.31-151.06 0-13.212-1.002-26.19-2.933-38.862l-172.329-172.33-200.238 112.192 23.25 18.75c-2.262 4.669-5.661 42.077-5.661 42.077l25.891 25.193c1.38 2.161 4.44 5.369 6.442 6.891 4.307 15.693 19.833 24.299 31.411 34.756l-3.577 61.91-164.946 60.483c46.57 63.62 121.81 39.523 206.69 39.523z" fill="#f7d854"/><g><path d="m199.97 260.488h112.06v118.84h-112.06z" fill="#f7a969"/><path d="m256 260.491h56.03v118.84h-56.03z" fill="#ea8d4e"/><path d="m385.54 332.29h-73.51v.002h-112.06v-.002h-73.5c-41.82 0-75.88 33.26-77.16 74.77 46.57 63.62 121.81 104.94 206.69 104.94s160.12-41.32 206.69-104.94c-1.27-41.52-35.32-74.77-77.15-74.77z" fill="#584b66"/><path d="m462.69 407.06c-46.57 63.62-121.81 104.94-206.69 104.94v-179.71h129.54c41.83 0 75.88 33.25 77.15 74.77z" fill="#3d3449"/><path d="m312.03 332.29-56.03 179.71-56.03-179.71z" fill="#efebdc"/><path d="m312.03 332.29-56.03 179.71v-179.71z" fill="#d6cfbd"/><path d="m349.62 151.149c-3.955-60.043-52.523-82.233-93.62-82.233s-89.666 22.19-93.62 82.233c-10.627 2.056-18.177 15.995-16.988 27.265l1.822 25.648c1.247 11.835 11.65 20.476 23.115 19.19l1.977-.214c23.485 63.063 60.316 69.638 83.694 73.33 23.378-3.692 60.209-10.267 83.694-73.33l1.977.214c11.465 1.286 21.868-7.354 23.115-19.19l1.822-25.648c1.189-11.27-6.36-25.209-16.988-27.265z" fill="#ffbf85"/><path d="m366.609 178.414-1.822 25.648c-1.247 11.835-11.65 20.476-23.115 19.19l-1.977-.214c-8.026 21.528-17.602 36.48-27.664 46.971-19.404 20.242-40.63 23.924-56.03 26.359v-227.452c41.097 0 89.665 22.19 93.62 82.233 10.627 2.056 18.176 15.995 16.988 27.265z" fill="#f7a969"/><path d="m290.367 68.43c-22.819-2.91-45.915-2.91-68.734 0-44.494 5.674-73.748 49.312-62.098 92.626l5.448 28.697h21.294l7.088-34.919c2.662-13.117 15.799-21.303 28.747-17.914l27.985 7.325c3.87 1.013 7.936 1.013 11.806 0l27.985-7.325c12.949-3.389 26.085 4.797 28.748 17.914l7.087 34.919h21.295l5.448-28.697c11.65-43.315-17.605-86.952-62.099-92.626z" fill="#d36c18"/><path d="m353.43 157c-.28 1.35-.61 2.71-.97 4.06l-5.44 28.69h-21.3l-6.64-32.75-.44-2.17c-2.67-13.11-15.8-21.3-28.75-17.91l-27.99 7.32c-1.94.51-3.92.76-5.9.76v-78.75c11.48 0 22.96.73 34.37 2.18 14.01 1.78 26.51 7.33 36.69 15.46 11.09 8.83 19.45 20.72 24.02 34.11 1.11 3.25 2 6.59 2.64 10 1.79 9.32 1.79 19.14-.29 29z" fill="#af4b00"/><path d="m346.333 95.667 8.697 32.333h-198.06l8.03-28.667c0-3.15-7.83-12.393-7.44-15.443 4.57-36.03 35.33-63.89 72.61-63.89h51.66c37.28 0 68.04 27.86 72.61 63.89.39 3.05-8.107 8.627-8.107 11.777z" fill="#584b66"/><path d="m355.03 128h-99.03v-108h25.83c37.28 0 68.04 27.86 72.61 63.89.39 3.05-8.11 8.63-8.11 11.78l6.01 22.33z" fill="#3d3449"/><path d="m355.03 93.2v34.8h-198.06v-34.8c0-3.15.2-6.26.59-9.31h196.88c.39 3.05.59 6.16.59 9.31z" fill="#ff4571"/><path d="m355.03 93.2v34.8h-99.03v-44.11h98.44c.39 3.05.59 6.16.59 9.31z" fill="#e52541"/><path d="m275.826 204.523c-11.431-9.718-28.221-9.718-39.652 0-12.748 10.838-28.758 17.094-45.477 17.771l-18.392.744 1.233 7.414c6.705 40.322 41.586 69.882 82.461 69.882 41.791-2.318 76.381-33.318 83.247-74.606l.447-2.69-18.392-.744c-16.717-.677-32.727-6.933-45.475-17.771z" fill="#efebdc"/><path d="m339.69 223.04-.44 2.69c-3.43 20.65-13.8 38.72-28.53 51.92s-33.82 21.53-54.72 22.68v-103.1c7.06 0 14.12 2.43 19.83 7.29 12.74 10.84 28.75 17.1 45.47 17.77z" fill="#d6cfbd"/><path d="m136.5 118h239v39h-239z" fill="#584b66"/><path d="m256 118h119.5v39h-119.5z" fill="#3d3449"/></g></g></svg>