<svg id="Layer_1" enable-background="new 0 0 512 512" height="512" viewBox="0 0 512 512" width="512" xmlns="http://www.w3.org/2000/svg"><g><g><g><path d="m512 256c0 56.5-18.31 108.72-49.31 151.06-46.57 63.62-121.81 39.523-206.69 39.523s-160.12 24.097-206.69-39.523c-31-42.34-49.31-94.56-49.31-151.06 0-141.38 114.62-256 256-256s256 114.62 256 256z" fill="#584b66"/></g></g><path d="m256 446.583c84.88 0 160.12 24.097 206.69-39.523 31-42.34 49.31-94.56 49.31-151.06 0-17.143-1.699-33.888-4.913-50.088l-155.117-155.117-259.97 199.354 112.824 112.527-155.514 44.384v.001c46.57 63.619 121.81 39.522 206.69 39.522z" fill="#3d3449"/><path d="m293 278 127-27.851-36.757-140.523c-12.234-46.771-44.434-81.406-83.714-90.044-28.792-6.332-58.267-6.332-87.058 0-39.28 8.638-71.48 43.273-83.714 90.044l-36.757 140.523 127 27.851z" fill="#d36c18"/><path d="m420 250.15-127 27.85h-37v-263.17c14.57 0 29.14 1.59 43.53 4.75 39.28 8.64 71.48 43.27 83.71 90.05z" fill="#ad4b07"/><path d="m199.97 260.488h112.06v118.84h-112.06z" fill="#f7a969"/><path d="m256 260.491h56.03v118.84h-56.03z" fill="#ea8d4e"/><path d="m134.563 332.292h242.875v114.294h-242.875z" fill="#ffd4a6"/><path d="m256 332.292h121.44v114.291h-121.44z" fill="#ffbb7d"/><path d="m462.69 407.06c-46.57 63.62-121.81 104.94-206.69 104.94s-160.12-41.32-206.69-104.94c1.28-41.51 35.34-74.77 77.16-74.77h73.5v9.18c0 30.94 25.09 56.03 56.03 56.03 15.47 0 29.48-6.27 39.62-16.41s16.41-24.15 16.41-39.62v-9.18h73.51c41.83 0 75.88 33.25 77.15 74.77z" fill="#4cd3aa"/><path d="m462.69 407.06c-46.57 63.62-121.81 104.94-206.69 104.94v-114.5c15.47 0 29.48-6.27 39.62-16.41s16.41-24.15 16.41-39.62v-9.18h73.51c41.83 0 75.88 33.25 77.15 74.77z" fill="#26b290"/><path d="m349.62 151.149c-3.955-60.043-52.523-82.233-93.62-82.233s-89.666 22.19-93.62 82.233c-10.628 2.055-18.177 15.995-16.988 27.265l1.822 25.648c1.247 11.835 11.65 20.476 23.115 19.19l1.977-.214c23.485 63.063 60.316 69.638 83.694 73.33 23.378-3.692 60.209-10.267 83.694-73.33l1.977.214c11.465 1.286 21.868-7.354 23.115-19.19l1.822-25.648c1.189-11.27-6.36-25.21-16.988-27.265z" fill="#ffbf85"/><path d="m366.609 178.414-1.822 25.648c-1.247 11.835-11.65 20.476-23.115 19.19l-1.977-.214c-8.027 21.528-17.602 36.48-27.664 46.971-19.404 20.242-40.63 23.924-56.03 26.359v-227.452c41.097 0 89.665 22.19 93.62 82.233 10.627 2.055 18.176 15.995 16.988 27.265z" fill="#f7a969"/><path d="m275.826 204.523c-11.431-9.719-28.221-9.719-39.652 0-12.748 10.838-28.758 17.094-45.477 17.771l-18.392.744 1.233 7.414c6.705 40.322 41.586 69.882 82.461 69.882 41.791-2.318 76.381-33.318 83.247-74.606l.447-2.69-18.392-.744c-16.717-.677-32.727-6.933-45.475-17.771z" fill="#efebdc"/><path d="m339.69 223.04-.44 2.69c-3.43 20.65-12.49 39.84-27.22 53.04s-35.13 20.41-56.03 21.56v-103.1c7.06 0 14.12 2.43 19.83 7.29 12.74 10.84 28.75 17.1 45.47 17.77z" fill="#d6cfbd"/><path d="m361.586 137.553c-5.169-40.621-36.654-72.887-77.136-79.05-18.858-2.871-38.042-2.871-56.899 0-40.483 6.163-71.967 38.429-77.136 79.05l-3.857 30.313 22.211-10.065c7.17-3.249 13.299-8.421 17.708-14.943l2.194-3.246c11.269-16.67 32.666-23.181 51.31-15.614 10.273 4.169 21.766 4.169 32.039 0 18.644-7.567 40.041-1.056 51.31 15.614l2.194 3.246c4.409 6.521 10.538 11.694 17.708 14.943l22.211 10.065z" fill="#d36c18"/><path d="m365.44 167.87-22.21-10.07c-7.17-3.25-13.3-8.42-17.71-14.94l-2.19-3.25c-8.12-12.01-21.49-18.74-35.3-18.74-5.37 0-10.8 1.01-16.01 3.13-5.14 2.08-10.58 3.13-16.02 3.13v-70.78c9.51 0 19.02.71 28.45 2.15 40.48 6.17 71.97 38.43 77.14 79.05z" fill="#ad4b07"/><path d="m195.161 72.129c-7.688 8.001-15.107 17.117-21.553 27.371l32.19-12.76c32.459-12.867 67.945-12.867 100.405 0l32.19 12.76c-6.446-10.254-13.865-19.371-21.553-27.371-34.12-35.505-87.56-35.505-121.679 0z" fill="#ffea92"/><path d="m338.39 99.5-32.19-12.76c-16.23-6.44-33.22-9.65-50.2-9.65v-31.59c21.89 0 43.78 8.88 60.84 26.63 7.69 8 15.11 17.12 21.55 27.37z" fill="#f7d854"/></g></svg>