<svg id="Layer_1" enable-background="new 0 0 512 512" height="512" viewBox="0 0 512 512" width="512" xmlns="http://www.w3.org/2000/svg"><g><g><g><path d="m512 256c0 56.5-18.31 108.72-49.31 151.06-46.57 63.62-121.81 39.523-206.69 39.523s-160.12 24.097-206.69-39.523c-31-42.34-49.31-94.56-49.31-151.06 0-141.38 114.62-256 256-256s256 114.62 256 256z" fill="#a23ace"/></g></g><path d="m256 446.583c84.88 0 160.12 24.097 206.69-39.523 31-42.34 49.31-94.56 49.31-151.06 0-14.663-1.251-29.032-3.619-43.021l-137.136-137.136-214.524 144.06 30.56 30.9c4.311 15.675 15.485 21.418 27.052 31.865l-1.333 64.332-163.69 60.06c46.57 63.62 121.81 39.523 206.69 39.523z" fill="#7728a0"/><g><path d="m199.97 260.488h112.06v118.84h-112.06z" fill="#f7a969"/><path d="m256 260.491h56.03v118.84h-56.03z" fill="#ea8d4e"/><path d="m385.54 332.29h-73.51v.002h-112.06v-.002h-73.5c-41.82 0-75.88 33.26-77.16 74.77 46.57 63.62 121.81 104.94 206.69 104.94s160.12-41.32 206.69-104.94c-1.27-41.52-35.32-74.77-77.15-74.77z" fill="#efebdc"/><path d="m462.69 407.06c-46.57 63.62-121.81 104.94-206.69 104.94v-179.71h129.54c41.83 0 75.88 33.25 77.15 74.77z" fill="#d6cfbd"/><path d="m376.131 394.333v-62.043h-36.573v62.043h-167.116v-62.043h-36.573v62.043l-36.869 25v38.867c43.35 33.72 97.83 53.8 157 53.8s113.65-20.08 157-53.8v-38.867z" fill="#4779f4"/><path d="m413 419.33v38.87c-43.35 33.72-97.83 53.8-157 53.8v-117.67h83.56v-62.04h36.57v62.04z" fill="#2357cc"/><path d="m349.62 151.149c-3.955-60.043-52.523-82.233-93.62-82.233s-89.665 22.19-93.62 82.233c-10.628 2.056-18.177 15.995-16.988 27.265l1.822 25.648c1.247 11.835 11.65 20.476 23.115 19.19l1.977-.214c23.485 63.063 60.316 69.638 83.694 73.33 23.378-3.692 60.209-10.267 83.694-73.33l1.977.214c11.465 1.286 21.868-7.354 23.115-19.19l1.822-25.648c1.189-11.27-6.36-25.209-16.988-27.265z" fill="#ffbf85"/><path d="m366.609 178.414-1.822 25.648c-1.247 11.835-11.65 20.476-23.115 19.19l-1.977-.214c-8.027 21.528-17.602 36.48-27.664 46.971-19.404 20.242-40.629 23.924-56.03 26.359v-227.452c41.097 0 89.665 22.19 93.62 82.233 10.627 2.056 18.176 15.995 16.988 27.265z" fill="#f7a969"/><path d="m369.37 111.444-23.282 78.223-34.058-81.667-150.566-3.484s44.615-52.85 114.869-52.85z" fill="#f4cc21"/><path d="m275.826 204.523c-11.431-9.718-28.221-9.718-39.652 0-12.748 10.838-28.758 17.094-45.477 17.771l-18.392.744 1.233 7.414c6.705 40.322 41.586 69.882 82.461 69.882 41.791-2.318 76.381-33.318 83.247-74.606l.447-2.69-18.392-.744c-16.717-.677-32.727-6.933-45.475-17.771z" fill="#efebdc"/><path d="m339.69 223.04-.44 2.69c-3.43 20.65-13.8 38.72-28.53 51.92s-33.82 21.53-54.72 22.68v-103.1c7.06 0 14.12 2.43 19.83 7.29 12.74 10.84 28.75 17.1 45.47 17.77z" fill="#d6cfbd"/><path d="m145.268 125 23.732 64.667 30.97-64.667s117.834 24.693 189.834-25.307c0 0-41.31-73.36-133.804-73.36-68.667 0-124.463 37.334-110.732 98.667z" fill="#ffea92"/><path d="m389.8 99.69c-39.81 27.65-93.63 32.46-133.8 31.24v-104.6c92.49 0 133.8 73.36 133.8 73.36z" fill="#f7d854"/></g></g></svg>