<svg id="Layer_1" enable-background="new 0 0 512 512" height="512" viewBox="0 0 512 512" width="512" xmlns="http://www.w3.org/2000/svg"><g><g><g><path d="m512 256c0 56.5-18.31 108.72-49.31 151.06-46.57 63.62-121.81 39.523-206.69 39.523s-160.12 24.097-206.69-39.523c-31-42.34-49.31-94.56-49.31-151.06 0-141.38 114.62-256 256-256s256 114.62 256 256z" fill="#4cd3aa"/></g></g><path d="m256 446.583c84.88 0 160.12 24.097 206.69-39.523 31-42.34 49.31-94.56 49.31-151.06 0-8.309-.411-16.522-1.185-24.628l-154.657-154.658-236.158 218.653 70.785 68.848-141.475 42.845c46.57 63.62 121.81 39.523 206.69 39.523z" fill="#26b290"/><g><path d="m256 38c-64.88 0-136 32-136 152v105.367h272v-105.367c0-120-71.12-152-136-152z" fill="#584b66"/><path d="m392 190v105.37h-136v-257.37c64.88 0 136 32 136 152z" fill="#3d3449"/><path d="m199.97 260.488h112.06v118.84h-112.06z" fill="#ffbb7d"/><path d="m256 260.491h56.03v118.84h-56.03z" fill="#efa36a"/><path d="m385.54 332.29h-73.51v.002h-112.06v-.002h-73.5c-41.82 0-75.88 33.26-77.16 74.77 46.57 63.62 121.81 104.94 206.69 104.94s160.12-41.32 206.69-104.94c-1.27-41.52-35.32-74.77-77.15-74.77z" fill="#ffea92"/><path d="m462.69 407.06c-46.57 63.62-121.81 104.94-206.69 104.94v-179.71h129.54c41.83 0 75.88 33.25 77.15 74.77z" fill="#f7d854"/><path d="m349.62 151.149c-3.955-60.043-52.523-82.233-93.62-82.233s-89.666 22.19-93.62 82.233c-10.627 2.055-18.177 15.995-16.988 27.265l1.822 25.648c1.247 11.835 11.65 20.476 23.115 19.19l1.977-.214c23.485 63.063 60.316 69.638 83.694 73.33 23.378-3.692 60.209-10.267 83.694-73.33l1.977.214c11.465 1.286 21.868-7.354 23.115-19.19l1.822-25.648c1.189-11.27-6.36-25.21-16.988-27.265z" fill="#ffd4a6"/><path d="m366.609 178.414-1.822 25.648c-1.247 11.835-11.65 20.476-23.115 19.19l-1.977-.214c-8.026 21.528-17.602 36.48-27.664 46.971-19.404 20.242-40.63 23.924-56.03 26.359v-227.452c41.097 0 89.665 22.19 93.62 82.233 10.627 2.055 18.176 15.995 16.988 27.265z" fill="#ffbb7d"/><path d="m275.826 204.523c-11.431-9.719-28.221-9.719-39.652 0-12.748 10.838-28.758 17.094-45.477 17.771l-18.392.744 1.233 7.414c6.705 40.322 41.586 69.882 82.461 69.882 41.791-2.318 76.381-33.318 83.247-74.606l.447-2.69-18.392-.744c-16.717-.677-32.727-6.933-45.475-17.771z" fill="#efebdc"/><path d="m339.69 223.04-.44 2.69c-3.43 20.65-13.8 38.72-28.53 51.92s-33.82 21.53-54.72 22.68v-103.1c7.06 0 14.12 2.43 19.83 7.29 12.74 10.84 28.75 17.1 45.47 17.77z" fill="#d6cfbd"/><path d="m376.131 394.333v-62.043h-36.573v62.043h-167.116v-62.043h-36.573v62.043l-36.869 25v38.867c43.35 33.72 97.83 53.8 157 53.8s113.65-20.08 157-53.8v-38.867z" fill="#d36c18"/><path d="m256 54.333c-92.333 0-105.09 62.237-105.09 73.288 0 16.226 13.153 29.379 29.379 29.379 10.728 0 20.109-5.752 25.237-14.339 5.128 8.587 14.509 14.339 25.237 14.339s20.109-5.752 25.237-14.339c5.128 8.587 14.509 14.339 25.237 14.339s20.109-5.752 25.237-14.339c5.128 8.586 14.509 14.339 25.237 14.339 16.225 0 29.379-13.153 29.379-29.379 0-11.05-12.757-73.288-105.09-73.288z" fill="#584b66"/><path d="m361.09 127.62c0 16.23-13.15 29.38-29.38 29.38-10.73 0-20.11-5.75-25.24-14.34-5.12 8.59-14.51 14.34-25.23 14.34-10.73 0-20.11-5.75-25.24-14.34v-88.33c92.33 0 105.09 62.24 105.09 73.29z" fill="#3d3449"/><path d="m413 419.33v38.87c-43.35 33.72-97.83 53.8-157 53.8v-117.67h83.56v-62.04h36.57v62.04z" fill="#af4b00"/></g></g></svg>