<svg id="Layer_1" enable-background="new 0 0 512 512" height="512" viewBox="0 0 512 512" width="512" xmlns="http://www.w3.org/2000/svg"><g><g><g><path d="m512 256c0 56.5-18.31 108.72-49.31 151.06-46.57 63.62-121.81 39.523-206.69 39.523s-160.12 24.097-206.69-39.523c-31-42.34-49.31-94.56-49.31-151.06 0-141.38 114.62-256 256-256s256 114.62 256 256z" fill="#4779f4"/></g></g><path d="m256 446.583c84.88 0 160.12 24.097 206.69-39.523 31-42.34 49.31-94.56 49.31-151.06 0-8.047-.39-16.002-1.116-23.86l-167.582-167.581-214.494 152.006 35.316 35.221 1.895 122.196c-40.856 1.088-116.709 33.078-116.709 33.078 46.57 63.62 121.81 39.523 206.69 39.523z" fill="#2357cc"/><g><path d="m199.97 260.488h112.06v118.84h-112.06z" fill="#f7a969"/><path d="m256 260.491h56.03v118.84h-56.03z" fill="#ea8d4e"/><path d="m462.69 407.06c-46.57 63.62-121.81 104.94-206.69 104.94s-160.12-41.32-206.69-104.94c1.28-41.51 35.34-74.77 77.16-74.77h73.5l56.03 36.71 56.03-36.71h73.51c41.83 0 75.88 33.25 77.15 74.77z" fill="#efebdc"/><path d="m462.69 407.06c-46.57 63.62-121.81 104.94-206.69 104.94v-143l43.81-25 12.22-11.71h73.51c41.83 0 75.88 33.25 77.15 74.77z" fill="#d6cfbd"/><path d="m172.246 300.33 83.754 68.67-41.877 47.167-71.623-83.875z" fill="#ff4571"/><path d="m339.754 300.33-83.754 68.67 41.877 47.167 71.623-83.875z" fill="#e52541"/><path d="m149 160-33 231 49.146-11.12c20.365-4.608 34.824-22.704 34.824-43.584v-160.304z" fill="#584b66"/><path d="m363.001 160 33 231-49.146-11.12c-20.365-4.608-34.824-22.704-34.824-43.584v-160.304z" fill="#3d3449"/><path d="m349.62 151.149c-3.955-60.043-52.523-82.233-93.62-82.233s-89.665 22.19-93.62 82.233c-10.628 2.055-18.177 15.995-16.988 27.265l1.822 25.648c1.247 11.835 9.322 14.554 20.787 13.268l4.306 5.708c23.485 63.063 60.316 69.638 83.694 73.33 23.378-3.692 60.209-10.267 83.694-73.33l4.437-1.828c11.465 1.286 19.409-5.312 20.655-17.148l1.822-25.648c1.188-11.27-6.361-25.21-16.989-27.265z" fill="#ffbf85"/><path d="m366.609 178.414-1.822 25.648c-1.247 11.835-11.65 20.476-23.115 19.19l-1.977-.214c-8.027 21.528-17.602 36.48-27.664 46.971-19.404 20.242-40.629 23.924-56.03 26.359v-227.452c41.097 0 89.665 22.19 93.62 82.233 10.627 2.055 18.176 15.995 16.988 27.265z" fill="#f7a969"/><g><path d="m374.345 152.5h-30v-9.077c0-47.378-38.544-85.923-85.922-85.923s-85.923 38.545-85.923 85.923v9.077h-30v-9.077c0-63.92 52.003-115.923 115.923-115.923s115.922 52.003 115.922 115.923z" fill="#efebdc"/></g><g><path d="m374.34 143.42v9.08h-30v-9.08c0-29.45-14.89-55.48-37.53-70.97-.04-.02-.07-.05-.11-.07-.4-.27-.8-.54-1.21-.8-6.76-4.45-14.18-7.97-22.09-10.37-.49-.16-.99-.3-1.48-.44-7.47-2.13-15.36-3.27-23.5-3.27-.81 0-1.62.01-2.42.04v-30.01c.81-.02 1.61-.03 2.42-.03 63.92 0 115.92 52 115.92 115.92z" fill="#d6cfbd"/></g><path d="m275.826 204.523c-11.431-9.719-28.221-9.719-39.652 0-12.748 10.838-28.758 17.094-45.477 17.771l-18.392.744 1.233 7.414c6.705 40.322 41.586 69.882 82.461 69.882 41.791-2.318 76.381-33.318 83.247-74.606l.447-2.69-18.392-.744c-16.717-.677-32.727-6.933-45.475-17.771z" fill="#efebdc"/><path d="m339.69 223.04-.44 2.69c-3.43 20.65-12.49 39.84-27.22 53.04s-35.13 20.41-56.03 21.56v-103.1c7.06 0 14.12 2.43 19.83 7.29 12.74 10.84 28.75 17.1 45.47 17.77z" fill="#d6cfbd"/><path d="m172.306 223.037h-27.374c-12.893 0-23.344-10.452-23.344-23.344v-54.006c0-12.893 10.452-23.344 23.344-23.344h27.374z" fill="#ffea92"/><path d="m339.694 223.037h27.374c12.893 0 23.344-10.452 23.344-23.344v-54.006c0-12.893-10.452-23.344-23.344-23.344h-27.374z" fill="#f7d854"/><path d="m337.151 106.817c-10.743-22.961-39.658-49.75-81.151-49.75-41.494 0-72.086 25.3-81.873 49.75-10.623 26.538-16.627 60.849-16.627 60.849 37.167 1.333 68.833-45.324 68.833-45.324s18.667 70.891 120 74.891c0 .001 11.167-49.137-9.182-90.416z" fill="#584b66"/><path d="m346.33 197.23c-43.88-1.73-72.26-16-90.33-31.64v-108.52c9.29 0 17.95 1.34 25.92 3.7.49.14.99.28 1.48.44 8.13 2.54 15.51 6.12 22.09 10.37.4.26.81.53 1.21.8.04.02.07.05.11.07 14.43 9.67 24.8 22.53 30.34 34.37 7.45 15.11 10.67 31.27 11.77 45.68 1.9 24.98-2.59 44.73-2.59 44.73z" fill="#3d3449"/></g></g></svg>