<svg id="Layer_1" enable-background="new 0 0 512 512" height="512" viewBox="0 0 512 512" width="512" xmlns="http://www.w3.org/2000/svg"><g><g><g><path d="m512 256c0 56.5-18.31 108.72-49.31 151.06-46.57 63.62-121.81 39.523-206.69 39.523s-160.12 24.097-206.69-39.523c-31-42.34-49.31-94.56-49.31-151.06 0-141.38 114.62-256 256-256s256 114.62 256 256z" fill="#584b66"/></g></g><path d="m256 446.583c84.88 0 160.12 24.097 206.69-39.523 31-42.34 49.31-94.56 49.31-151.06 0-6.762-.267-13.461-.782-20.091l-195.085-195.586-161.238 178.218 29.807 29.924 52.298 72.709-187.69 85.886c.002.003.005.006.007.01 46.571 63.607 121.807 39.513 206.683 39.513z" fill="#3d3449"/><g><path d="m178.727 298.349h153.254v45.651h-153.254z" fill="#d6cfbd"/><path d="m255.353 298.349h76.623v45.651h-76.623z" fill="#bab3a2"/><path d="m312.03 260.488h-112.06v118.84l56.03 38.672 56.03-38.672z" fill="#f7a969"/><path d="m312.03 260.491v118.84l-56.03 38.669v-157.509z" fill="#ea8d4e"/><path d="m385.54 332.29h-73.51v.002l-56.03 70.208-56.03-70.208v-.002h-73.5c-41.82 0-75.88 33.26-77.16 74.77 46.57 63.62 121.81 104.94 206.69 104.94s160.12-41.32 206.69-104.94c-1.27-41.52-35.32-74.77-77.15-74.77z" fill="#4779f4"/><path d="m462.69 407.06c-46.57 63.62-121.81 104.94-206.69 104.94v-104l65-75.71h64.54c41.83 0 75.88 33.25 77.15 74.77z" fill="#2357cc"/><path d="m349.62 151.149c-3.955-60.043-52.523-82.233-93.62-82.233s-89.665 22.19-93.62 82.233c-10.628 2.056-18.177 15.995-16.988 27.265l1.822 25.648c1.247 11.835 11.65 20.476 23.115 19.19l1.977-.214c23.485 63.063 60.316 69.638 83.694 73.33 23.378-3.692 60.209-10.267 83.694-73.33l1.977.214c11.465 1.286 21.868-7.354 23.115-19.19l1.822-25.648c1.189-11.27-6.36-25.209-16.988-27.265z" fill="#ffbf85"/><path d="m366.609 178.414-1.822 25.648c-1.247 11.835-11.65 20.476-23.115 19.19l-1.977-.214c-8.027 21.528-17.602 36.48-27.664 46.971-19.404 20.242-40.629 23.924-56.03 26.359v-227.452c41.097 0 89.665 22.19 93.62 82.233 10.627 2.056 18.176 15.995 16.988 27.265z" fill="#f7a969"/><path d="m275.826 204.523c-11.431-9.718-28.221-9.718-39.652 0-12.748 10.838-28.758 17.094-45.477 17.771l-18.392.744 1.233 7.414c6.705 40.322 41.586 69.882 82.461 69.882 41.791-2.318 76.381-33.318 83.247-74.606l.447-2.69-18.392-.744c-16.717-.677-32.727-6.933-45.475-17.771z" fill="#efebdc"/><path d="m339.69 223.04-.44 2.69c-3.43 20.65-12.49 39.84-27.22 53.04s-35.13 20.41-56.03 21.56v-103.1c7.06 0 14.12 2.43 19.83 7.29 12.74 10.84 28.75 17.1 45.47 17.77z" fill="#d6cfbd"/><path d="m358.323 125.891s-4.478-47.857-42.189-85.568l-15.288 12.57-44.846-36.893-44.845 36.894-15.288-12.57c-37.711 37.711-42.189 85.568-42.189 85.568.006-.008-1.789 19.847.145 30.119l16.875 21.906 8.343-36.928c2.916-12.906 9.944-24.623 20.327-32.824 12.124-9.576 30.724-16.796 56.632-7.368 25.908-9.428 44.508-2.208 56.632 7.368 10.383 8.201 17.411 19.918 20.327 32.824l8.343 36.928 16.875-21.906c1.935-10.273.14-30.128.146-30.12z" fill="#ffea92"/><path d="m359.08 142.95c0 4.69-.22 9.46-.9 13.06l-16.88 21.91-8.34-36.93c-2.92-12.91-9.95-24.62-20.33-32.83-12.12-9.57-30.72-16.79-56.63-7.36v-84.8l44.85 36.89 15.28-12.57c37.71 37.71 42.19 85.57 42.19 85.57s.76 8.38.76 17.06z" fill="#f7d854"/><path d="m178.727 298.349-33.459 33.941 56.732 89.855 29-18.145 25 47.06v-63.727z" fill="#efebdc"/><path d="m331.98 298.349 34.752 33.941-56.732 89.855-29-18.145-25 47.06v-63.727z" fill="#d6cfbd"/></g></g></svg>