<svg id="Layer_1" enable-background="new 0 0 512 512" height="512" viewBox="0 0 512 512" width="512" xmlns="http://www.w3.org/2000/svg"><g><g><g><path d="m512 256c0 56.5-18.31 108.72-49.31 151.06-46.57 63.62-121.81 39.523-206.69 39.523s-160.12 24.097-206.69-39.523c-31-42.34-49.31-94.56-49.31-151.06 0-141.38 114.62-256 256-256s256 114.62 256 256z" fill="#4cd3aa"/></g></g><path d="m256 446.583c84.88 0 160.12 24.097 206.69-39.523 31-42.34 49.31-94.56 49.31-151.06 0-12.32-.889-24.43-2.572-36.285l-165.732-165.731s-38.278-7.378-40.441-7.113c-1.135-1.212-14.051-13.882-14.051-13.882l-148.888 130.428 23.309 25.833-7.43 30.287 30.042 30.26c4.254 15.424 26.094 38.023 26.263 38.203l12 74-175.19 45.06c46.57 63.62 121.81 39.523 206.69 39.523z" fill="#26b290"/><g><path d="m199.97 260.488h112.06v118.84h-112.06z" fill="#af4b00"/><path d="m256 260.491h56.03v118.84h-56.03z" fill="#7f3706"/><path d="m385.54 332.29h-73.51v.002h-112.06v-.002h-73.5c-41.82 0-75.88 33.26-77.16 74.77 46.57 63.62 121.81 104.94 206.69 104.94s160.12-41.32 206.69-104.94c-1.27-41.52-35.32-74.77-77.15-74.77z" fill="#d36c18"/><path d="m462.69 407.06c-46.57 63.62-121.81 104.94-206.69 104.94v-179.71h129.54c41.83 0 75.88 33.25 77.15 74.77z" fill="#af4b00"/><path d="m349.62 151.149c-3.955-60.043-52.523-82.233-93.62-82.233s-89.665 22.19-93.62 82.233c-10.628 2.056-18.177 15.995-16.988 27.265l1.822 25.648c1.247 11.835 11.65 20.476 23.115 19.19l1.977-.214c23.485 63.063 60.316 69.638 83.694 73.33 23.378-3.692 60.209-10.267 83.694-73.33l1.977.214c11.465 1.286 21.868-7.354 23.115-19.19l1.822-25.648c1.189-11.27-6.36-25.209-16.988-27.265z" fill="#d36c18"/><path d="m366.609 178.414-1.822 25.648c-1.247 11.835-11.65 20.476-23.115 19.19l-1.977-.214c-8.027 21.528-17.602 36.48-27.664 46.971-19.404 20.242-40.629 23.924-56.03 26.359v-227.452c41.097 0 89.665 22.19 93.62 82.233 10.627 2.056 18.176 15.995 16.988 27.265z" fill="#af4b00"/><path d="m275.826 204.523c-11.431-9.718-28.221-9.718-39.652 0-12.748 10.838-28.758 17.094-45.477 17.771l-18.392.744 1.233 7.414c6.705 40.322 41.586 69.882 82.461 69.882 41.791-2.318 76.381-33.318 83.247-74.606l.447-2.69-18.392-.744c-16.717-.677-32.727-6.933-45.475-17.771z" fill="#efebdc"/><path d="m339.69 223.04-.44 2.69c-3.43 20.65-13.8 38.72-28.53 51.92s-33.82 21.53-54.72 22.68v-103.1c7.06 0 14.12 2.43 19.83 7.29 12.74 10.84 28.75 17.1 45.47 17.77z" fill="#d6cfbd"/><path d="m404.51 464.54c-41.88 29.88-93.14 47.46-148.51 47.46s-106.63-17.58-148.51-47.46c7.38-38.75 41.44-68.04 82.34-68.04 26.91 0 50.83 12.69 66.17 32.39 15.34-19.7 39.26-32.39 66.17-32.39 40.9 0 74.96 29.29 82.34 68.04z" fill="#ffd110"/><path d="m404.51 464.54c-41.88 29.88-93.14 47.46-148.51 47.46v-83.11c15.34-19.7 39.26-32.39 66.17-32.39 40.9 0 74.96 29.29 82.34 68.04z" fill="#fa0"/><path d="m353.083 92.813c.547-3.098.848-6.281.848-9.536 0-30.116-24.414-47.277-54.53-47.277-2.537 0-5.027.193-7.472.528-7.849-11.436-21.01-18.942-35.929-18.942s-28.08 7.505-35.929 18.942c-2.445-.336-4.935-.528-7.472-.528-30.116 0-54.531 17.161-54.531 47.277 0 3.255.301 6.438.848 9.536-18.817 3.407-33.093 19.862-33.093 39.661 0 22.268 18.052 40.32 40.32 40.32 20.594 0 37.57-15.444 40.007-35.379 2.116.249 4.265.392 6.448.392 17.709 0 33.439-8.447 43.401-21.527 9.961 13.079 25.691 21.527 43.401 21.527 2.183 0 4.332-.143 6.448-.392 2.438 19.935 19.414 35.379 40.008 35.379 22.268 0 40.32-18.052 40.32-40.32 0-19.799-14.276-36.253-33.093-39.661z" fill="#494949"/><path d="m386.18 132.47c0 22.27-18.06 40.32-40.32 40.32-20.6 0-37.57-15.44-40.01-35.37-2.12.24-4.27.39-6.45.39-17.71 0-33.44-8.45-43.4-21.53v-98.69c14.92 0 28.08 7.5 35.93 18.94 2.44-.34 4.93-.53 7.47-.53 30.12 0 54.53 17.16 54.53 47.28 0 3.25-.3 6.44-.85 9.53 18.82 3.41 33.1 19.86 33.1 39.66z" fill="#333"/></g></g></svg>