<svg id="Layer_1" enable-background="new 0 0 512 512" height="512" viewBox="0 0 512 512" width="512" xmlns="http://www.w3.org/2000/svg"><g><g><g><path d="m512 256c0 56.5-18.31 108.72-49.31 151.06-46.57 63.62-121.81 39.523-206.69 39.523s-160.12 24.097-206.69-39.523c-31-42.34-49.31-94.56-49.31-151.06 0-141.38 114.62-256 256-256s256 114.62 256 256z" fill="#584b66"/></g></g><path d="m256 446.583c84.88 0 160.12 24.097 206.69-39.523 31-42.34 49.31-94.56 49.31-151.06 0-8.97-.466-17.831-1.366-26.564l-155.204-155.204-158.43 263.768-155.369 57.956c2.467 3.77 5.022 7.476 7.679 11.104 46.57 63.62 121.81 39.523 206.69 39.523z" fill="#3d3449"/><g><path d="m256 28c-67.221 0-148.543 62.208-141.985 176.481s51.81 179.186 51.81 179.186h180.35s45.251-64.913 51.81-179.186c6.558-114.273-74.764-176.481-141.985-176.481z" fill="#ffea92"/><path d="m397.98 204.48c-6.55 114.27-51.8 179.19-51.8 179.19h-90.18v-355.67c67.22 0 148.54 62.21 141.98 176.48z" fill="#f7d854"/><path d="m199.97 260.488h112.06v118.84h-112.06z" fill="#f7a969"/><path d="m256 260.491h56.03v118.84h-56.03z" fill="#ea8d4e"/><path d="m385.54 332.29h-73.51v.002h-112.06v-.002h-73.5c-41.82 0-75.88 33.26-77.16 74.77 46.57 63.62 121.81 104.94 206.69 104.94s160.12-41.32 206.69-104.94c-1.27-41.52-35.32-74.77-77.15-74.77z" fill="#ffbf85"/><path d="m462.69 407.06c-46.57 63.62-121.81 104.94-206.69 104.94v-179.71h129.54c41.83 0 75.88 33.25 77.15 74.77z" fill="#f7a969"/><path d="m349.62 151.149c-3.955-60.043-52.523-82.233-93.62-82.233s-89.665 22.19-93.62 82.233c-10.628 2.056-18.177 15.995-16.988 27.265l1.822 25.648c1.247 11.835 11.65 20.476 23.115 19.19l1.977-.214c23.485 63.063 60.316 69.638 83.694 73.33 23.378-3.692 60.209-10.267 83.694-73.33l1.977.214c11.465 1.286 21.868-7.354 23.115-19.19l1.822-25.648c1.189-11.27-6.36-25.209-16.988-27.265z" fill="#ffbf85"/><path d="m366.609 178.414-1.822 25.648c-1.247 11.835-11.65 20.476-23.115 19.19l-1.977-.214c-8.027 21.528-17.602 36.48-27.664 46.971-19.404 20.242-40.629 23.924-56.03 26.359v-227.452c41.097 0 89.665 22.19 93.62 82.233 10.627 2.056 18.176 15.995 16.988 27.265z" fill="#f7a969"/><path d="m275.826 204.523c-11.431-9.718-28.221-9.718-39.652 0-12.748 10.838-28.758 17.094-45.477 17.771l-18.392.744 1.233 7.414c6.705 40.322 41.586 69.882 82.461 69.882 41.791-2.318 76.381-33.318 83.247-74.606l.447-2.69-18.392-.744c-16.717-.677-32.727-6.933-45.475-17.771z" fill="#efebdc"/><path d="m339.69 223.04-.44 2.69c-3.43 20.65-12.49 39.84-27.22 53.04s-35.13 20.41-56.03 21.56v-103.1c7.06 0 14.12 2.43 19.83 7.29 12.74 10.84 28.75 17.1 45.47 17.77z" fill="#d6cfbd"/><path d="m470.38 395.96c-45.7 69.87-124.65 116.04-214.38 116.04s-168.68-46.17-214.38-116.04l26.36-36.85s92.287 63.035 188.02 63.035 188.02-63.035 188.02-63.035z" fill="#ff57cc"/><path d="m470.38 395.96c-45.7 69.87-124.65 116.04-214.38 116.04v-89.86c95.73 0 188.02-63.03 188.02-63.03z" fill="#e224ba"/><path d="m299.75 64c-4.194-7.31-34.25-16.25-47-14.5-128.462 17.632-85.083 144.833-85.083 144.833s109.879-70.23 127.217-110.969l11.616 54.636 15.5-19.5s3.5 42 25.5 55.5c0 0 32.134-106.493-47.75-110z" fill="#ffea92"/><path d="m347.5 174c-22-13.5-25.5-55.5-25.5-55.5l-15.5 19.5-11.62-54.64c-5.59 13.14-20.82 29.36-38.88 45.29v-79.37c13.99-.16 39.88 7.98 43.75 14.72 79.88 3.51 47.75 110 47.75 110z" fill="#f7d854"/></g></g></svg>