<svg id="Layer_1" enable-background="new 0 0 512 512" height="512" viewBox="0 0 512 512" width="512" xmlns="http://www.w3.org/2000/svg"><g><g><g><path d="m512 256c0 56.5-18.31 108.72-49.31 151.06-46.57 63.62-121.81 39.523-206.69 39.523s-160.12 24.097-206.69-39.523c-31-42.34-49.31-94.56-49.31-151.06 0-141.38 114.62-256 256-256s256 114.62 256 256z" fill="#584b66"/></g></g><path d="m256 446.583c84.88 0 160.12 24.097 206.69-39.523 31-42.34 49.31-94.56 49.31-151.06 0-5.226-.176-10.41-.484-15.559l-165.675-165.674-262.584 219.997 60.537 58.236c-41.47.402-93.212 12.803-94.484 54.06 46.57 63.62 121.81 39.523 206.69 39.523z" fill="#3d3449"/><g><path d="m185.523 227.25-14.508-18.014s-48.39-4.41-68.054 25.402-19.705 60.126-19.705 60.126 29.626 6.421 62.944-6.437c33.319-12.858 39.323-61.077 39.323-61.077z" fill="#ffea92"/><path d="m326.477 227.25 14.508-18.014s48.39-4.41 68.054 25.402 19.704 60.126 19.704 60.126-29.626 6.421-62.944-6.437-39.322-61.077-39.322-61.077z" fill="#f7d854"/></g><path d="m256.049 37.001v-.001c-.016 0-.033 0-.049 0s-.033 0-.049 0v.001c-59.993.053-143.849 49.563-99.903 145.64l99.903 90.271v.088l.049-.044.049.044v-.088l99.903-90.271c43.946-96.076-39.91-145.587-99.903-145.64z" fill="#ffea92"/><path d="m355.95 182.64-99.9 90.27v.09l-.05-.04v-235.96h.05c59.99.05 143.85 49.56 99.9 145.64z" fill="#f7d854"/><path d="m199.97 260.488h112.06v118.84h-112.06z" fill="#ffbb7d"/><path d="m256 260.491h56.03v118.84h-56.03z" fill="#efa36a"/><path d="m385.54 332.29h-73.51v.002h-112.06v-.002h-73.5c-41.82 0-75.88 33.26-77.16 74.77 46.57 63.62 121.81 104.94 206.69 104.94s160.12-41.32 206.69-104.94c-1.27-41.52-35.32-74.77-77.15-74.77z" fill="#ffd4a6"/><path d="m462.69 407.06c-46.57 63.62-121.81 104.94-206.69 104.94v-179.71h129.54c41.83 0 75.88 33.25 77.15 74.77z" fill="#ffbb7d"/><path d="m385.98 476.58c-38.1 22.51-82.53 35.42-129.98 35.42-48.28 0-93.44-13.37-131.98-36.61l.03-143.1h38.33v56.248c0 16.088 13.041 29.129 29.129 29.129h126.982c16.087 0 29.129-13.041 29.129-29.129v-56.248h38.33z" fill="#ff57cc"/><path d="m385.98 476.58c-38.1 22.51-82.53 35.42-129.98 35.42v-94.33h62.49c16.09 0 29.13-13.04 29.13-29.13v-56.25h38.33z" fill="#e224ba"/><path d="m349.62 151.149c-3.955-60.043-52.523-82.233-93.62-82.233s-89.665 22.19-93.62 82.233c-10.628 2.055-18.177 15.995-16.988 27.265l1.822 25.648c1.247 11.835 11.65 20.476 23.115 19.19l1.977-.214c23.485 63.063 60.316 69.638 83.694 73.33 23.378-3.692 60.209-10.267 83.694-73.33l1.977.214c11.465 1.286 21.868-7.354 23.115-19.19l1.822-25.648c1.189-11.27-6.36-25.21-16.988-27.265z" fill="#ffd4a6"/><path d="m366.609 178.414-1.822 25.648c-1.247 11.835-11.65 20.476-23.115 19.19l-1.977-.214c-8.027 21.528-17.602 36.48-27.664 46.971-19.404 20.242-40.629 23.924-56.03 26.359v-227.452c41.097 0 89.665 22.19 93.62 82.233 10.627 2.055 18.176 15.995 16.988 27.265z" fill="#ffbb7d"/><path d="m275.826 204.523c-11.431-9.719-28.221-9.719-39.652 0-12.748 10.838-28.758 17.094-45.477 17.771l-18.392.744 1.233 7.414c6.705 40.322 41.586 69.882 82.461 69.882 41.791-2.318 76.381-33.318 83.247-74.606l.447-2.69-18.392-.744c-16.717-.677-32.727-6.933-45.475-17.771z" fill="#efebdc"/><path d="m339.69 223.04-.44 2.69c-3.43 20.65-13.8 38.72-28.53 51.92s-33.82 21.53-54.72 22.68v-103.1c7.06 0 14.12 2.43 19.83 7.29 12.74 10.84 28.75 17.1 45.47 17.77z" fill="#d6cfbd"/><path d="m256 54.333c-92.333 0-105.09 62.237-105.09 73.288 0 16.226 13.153 29.379 29.379 29.379 10.728 0 20.109-5.752 25.237-14.339 5.128 8.587 14.509 14.339 25.237 14.339s20.109-5.752 25.237-14.339c5.128 8.587 14.509 14.339 25.237 14.339s20.109-5.752 25.237-14.339c5.128 8.586 14.509 14.339 25.237 14.339 16.226 0 29.379-13.153 29.379-29.379 0-11.05-12.757-73.288-105.09-73.288z" fill="#ffea92"/><path d="m361.09 127.62c0 16.23-13.15 29.38-29.38 29.38-10.73 0-20.11-5.75-25.24-14.34-5.12 8.59-14.51 14.34-25.23 14.34-10.73 0-20.11-5.75-25.24-14.34v-88.33c92.33 0 105.09 62.24 105.09 73.29z" fill="#f7d854"/></g></svg>