<svg id="Layer_1" enable-background="new 0 0 512 512" height="512" viewBox="0 0 512 512" width="512" xmlns="http://www.w3.org/2000/svg"><g><g><g><path d="m41.821 396.263c-26.438-40.284-41.821-88.475-41.821-140.263 0-141.38 114.62-256 256-256s256 114.62 256 256c0 51.788-15.383 99.979-41.821 140.263z" fill="#ef9b14"/></g></g><path d="m470.179 396.263c26.438-40.284 41.821-88.475 41.821-140.263 0-15.197-1.332-30.082-3.872-44.551l-150.616-150.616-214.099 219.845 79.752 79.781-166.375 15.731-14.971 20.069c.001.001.002.003.003.004z" fill="#db8200"/><g><path d="m384.333 104.395c-29.333-69.333-82-85.062-128.333-85.062s-99 15.728-128.333 85.062c-29.333 69.333-40 200.188 94 200.188h34.333 34.333c134 0 123.334-130.855 94-200.188z" fill="#635a6d"/><path d="m290.33 304.58h-34.33v-285.25c46.33 0 99 15.73 128.33 85.07 29.34 69.33 40 200.18-94 200.18z" fill="#4a3e56"/><path d="m199.97 260.488h112.06v118.84h-112.06z" fill="#ffbb7d"/><path d="m256 260.491h56.03v118.84h-56.03z" fill="#efa36a"/><path d="m385.54 332.29h-73.51v.002h-112.06v-.002h-73.5c-41.82 0-75.88 33.26-77.16 74.77 46.57 63.62 121.81 104.94 206.69 104.94s160.12-41.32 206.69-104.94c-1.27-41.52-35.32-74.77-77.15-74.77z" fill="#ffd4a6"/><path d="m462.69 407.06c-46.57 63.62-121.81 104.94-206.69 104.94v-179.71h129.54c41.83 0 75.88 33.25 77.15 74.77z" fill="#ffbb7d"/><path d="m349.62 151.149c-3.955-60.043-52.523-82.233-93.62-82.233s-89.665 22.19-93.62 82.233c-10.628 2.055-18.177 15.995-16.988 27.265l1.822 25.648c1.247 11.835 11.65 20.476 23.115 19.19l1.977-.214c23.485 63.063 60.316 69.638 83.694 73.33 23.378-3.692 60.209-10.267 83.694-73.33l1.977.214c11.465 1.286 21.868-7.354 23.115-19.19l1.822-25.648c1.189-11.27-6.36-25.21-16.988-27.265z" fill="#ffd4a6"/><path d="m366.609 178.414-1.822 25.648c-1.247 11.835-11.65 20.476-23.115 19.19l-1.977-.214c-8.027 21.528-17.602 36.48-27.664 46.971-19.404 20.242-40.629 23.924-56.03 26.359v-227.452c41.097 0 89.665 22.19 93.62 82.233 10.627 2.055 18.176 15.995 16.988 27.265z" fill="#ffbb7d"/><path d="m275.826 204.523c-11.431-9.719-28.221-9.719-39.652 0-12.748 10.838-28.758 17.094-45.477 17.771l-18.392.744 1.233 7.414c6.705 40.322 41.586 69.882 82.461 69.882 41.791-2.318 76.381-33.318 83.247-74.606l.447-2.69-18.392-.744c-16.717-.677-32.727-6.933-45.475-17.771z" fill="#efebdc"/><path d="m339.69 223.04-.44 2.69c-3.43 20.65-12.49 39.84-27.22 53.04s-35.13 20.41-56.03 21.56v-103.1c7.06 0 14.12 2.43 19.83 7.29 12.74 10.84 28.75 17.1 45.47 17.77z" fill="#d6cfbd"/><path d="m154.2 155.445s34.133 6.222 67.467-43.111c0 0 44.135 80.728 136.401 43.364 0 0 1.277-112.697-101.934-112.697-92.634-.001-108.067 78.222-101.934 112.444z" fill="#635a6d"/><path d="m358.07 155.7c-45.64 18.48-79.5 8.07-102.07-7.18v-105.52h.13c103.22 0 101.94 112.7 101.94 112.7z" fill="#4a3e56"/><g><path d="m91.854 372.503h114.293v33.866h-114.293z" fill="#635a6d" transform="matrix(0 1 -1 0 538.437 240.436)"/><path d="m305.854 372.503h114.293v33.866h-114.293z" fill="#4a3e56" transform="matrix(0 1 -1 0 752.437 26.436)"/></g><path d="m470.19 396.27c-45.75 69.7-124.6 115.73-214.19 115.73s-168.44-46.03-214.19-115.73l14.98-20.08 199.21 70.39 199.21-70.39z" fill="#efebdc"/><path d="m470.19 396.27c-45.75 69.7-124.6 115.73-214.19 115.73v-65.42l199.21-70.39z" fill="#d6cfbd"/></g></g></svg>