<svg id="Layer_1" enable-background="new 0 0 512 512" height="512" viewBox="0 0 512 512" width="512" xmlns="http://www.w3.org/2000/svg"><g><g><g><path d="m512 256c0 56.5-18.31 108.72-49.31 151.06-46.57 63.62-121.81 39.523-206.69 39.523s-160.12 24.097-206.69-39.523c-31-42.34-49.31-94.56-49.31-151.06 0-141.38 114.62-256 256-256s256 114.62 256 256z" fill="#ff57cc"/></g></g><path d="m256 446.583c84.88 0 160.12 24.097 206.69-39.523 31-42.34 49.31-94.56 49.31-151.06 0-10.331-.629-20.513-1.819-30.523l-171.305-171.305-183.94 164.403 24.654 24.71c4.33 15.559 29.919 26.825 41.41 37.215.01.012-9.5 80.5-9.5 80.5l-162.19 46.06c.004.005.008.011.012.016 46.571 63.599 121.805 39.507 206.678 39.507z" fill="#e224ba"/><g><path d="m256 19.333c-37.667 0-125.737 24.2-106.702 142.267h106.702 106.702c19.035-118.067-69.035-142.267-106.702-142.267z" fill="#ffea92"/><path d="m362.7 161.6h-106.7v-142.27c37.67 0 125.74 24.2 106.7 142.27z" fill="#f7d854"/><path d="m199.97 260.488h112.06v118.84h-112.06z" fill="#f7a969"/><path d="m256 260.491h56.03v118.84h-56.03z" fill="#ea8d4e"/><path d="m385.54 332.29h-73.51v.002h-112.06v-.002l-150.66 74.77c46.57 63.62 121.81 104.94 206.69 104.94s160.12-41.32 206.69-104.94c-1.27-41.52-35.32-74.77-77.15-74.77z" fill="#ffbf85"/><path d="m462.69 407.06c-46.57 63.62-121.81 104.94-206.69 104.94v-179.71h129.54c41.83 0 75.88 33.25 77.15 74.77z" fill="#f7a969"/><path d="m462.69 407.06c-46.57 63.62-121.81 104.94-206.69 104.94s-160.12-41.32-206.69-104.94c1.28-41.51 35.34-74.77 77.16-74.77h73.5s39.46 113.81 256.75 47.26c3.58 8.5 5.67 17.78 5.97 27.51z" fill="#584b66"/><path d="m462.69 407.06c-46.57 63.62-121.81 104.94-206.69 104.94v-126.6c38.13 17.17 100.52 24.84 200.72-5.85 3.58 8.5 5.67 17.78 5.97 27.51z" fill="#3d3449"/><path d="m344 201.667s54.667 30 39 75c-11.271 32.374-31.941 56.946-6.5 93.333 43 61.5-36.705 80.598-36.705 80.598s2.889-35.632-27.765-63.598c-37.268-34-17.232-91.563.101-108.23z" fill="#f7d854"/><path d="m349.62 151.149c-3.955-60.043-52.523-82.233-93.62-82.233s-89.665 22.19-93.62 82.233c-10.628 2.055-18.177 15.995-16.988 27.265l1.822 25.648c1.247 11.835 11.65 20.476 23.115 19.19l1.977-.214c23.485 63.063 60.316 69.638 83.694 73.33 23.378-3.692 60.209-10.267 83.694-73.33l1.977.214c11.465 1.286 21.868-7.354 23.115-19.19l1.822-25.648c1.189-11.27-6.36-25.21-16.988-27.265z" fill="#ffbf85"/><path d="m366.609 178.414-1.822 25.648c-1.247 11.835-11.65 20.476-23.115 19.19l-1.977-.214c-8.027 21.528-17.602 36.48-27.664 46.971-19.404 20.242-40.629 23.924-56.03 26.359v-227.452c41.097 0 89.665 22.19 93.62 82.233 10.627 2.055 18.176 15.995 16.988 27.265z" fill="#f7a969"/><path d="m275.826 204.523c-11.431-9.719-28.221-9.719-39.652 0-12.748 10.838-28.758 17.094-45.477 17.771l-18.392.744 1.233 7.414c6.705 40.322 41.586 69.882 82.461 69.882 41.791-2.318 76.381-33.318 83.247-74.606l.447-2.69-18.392-.744c-16.717-.677-32.727-6.933-45.475-17.771z" fill="#efebdc"/><path d="m339.69 223.04-.44 2.69c-3.43 20.65-12.49 39.84-27.22 53.04s-35.13 20.41-56.03 21.56v-103.1c7.06 0 14.12 2.43 19.83 7.29 12.74 10.84 28.75 17.1 45.47 17.77z" fill="#d6cfbd"/><path d="m269.703 42.337-13.703-1.337-13.703 1.337c-59.427 5.798-101.861 60.215-92.999 119.263l.064.014c17.248 3.716 34.729-5.221 41.816-21.379 7.373-16.81 25.923-25.707 43.648-20.936l11.524 3.103c6.322 1.702 12.98 1.702 19.302 0l11.524-3.103c17.724-4.772 36.275 4.126 43.648 20.936 7.087 16.158 24.568 25.096 41.816 21.379l.063-.014c8.861-59.048-33.573-113.466-93-119.263z" fill="#ffea92"/><path d="m363.87 145.97c0 5.15-.38 10.37-1.17 15.63l-.06.01c-2.62.56-5.24.84-7.84.84-2.66 0-5.29-.29-7.85-.85-11.34-2.46-21.23-10.18-26.13-21.37-7.37-16.8-25.92-25.7-43.65-20.93l-11.52 3.1c-3.16.85-6.41 1.28-9.65 1.28v-82.68l13.7 1.34c2.23.22 4.43.5 6.6.86.03 0 .06 0 .09.02 50.71 8.2 87.48 52.23 87.48 102.75z" fill="#f7d854"/><path d="m272.058 45.366c-10.595-1.821-21.52-1.821-32.115 0-39.9 6.86-68.549 36.014-68.549 70.206s23.917-41.225 84.606-41.225 84.606 41.225 84.606 41.225c0-34.192-28.648-63.346-68.548-70.206z" fill="#7b7284"/><path d="m340.61 115.57s-23.92-41.22-84.61-41.22v-30.35c5.38 0 10.76.46 16.06 1.37 1.43.25 2.84.52 4.24.83.03 0 .06 0 .09.02 18.1 3.91 33.65 12.49 44.91 24 12.15 12.42 19.31 28.26 19.31 45.35z" fill="#4a3e56"/></g></g></svg>